<svg xmlns="http://www.w3.org/2000/svg" viewBox="0 0 720 240" role="img"
     font-family="system-ui, -apple-system, 'Segoe UI', sans-serif">
  <style>
    svg { color: #1f2328; }
    .muted { fill: #656d76; }
    .accent { fill: #8250df; }
    .accent-stroke { stroke: #8250df; }
    .box { stroke: currentColor; fill: none; }
    text { fill: currentColor; }
    .edge { stroke: currentColor; fill: none; marker-end: url(#arrow); }
    .dashed { stroke: currentColor; fill: none; stroke-dasharray: 4 3; marker-end: url(#arrow); }
    .arrowhead { fill: currentColor; }
    @media (prefers-color-scheme: dark) {
      svg { color: #e6edf3; }
      .muted { fill: #8b949e; }
      .accent { fill: #a371f7; }
      .accent-stroke { stroke: #a371f7; }
    }
  </style>
  <defs>
    <marker id="arrow" viewBox="0 0 10 10" refX="9" refY="5" markerWidth="7" markerHeight="7" orient="auto-start-reverse">
      <path d="M 0 0 L 10 5 L 0 10 z" class="arrowhead"/>
    </marker>
  </defs>

  <rect class="box" x="20" y="95" width="150" height="52" rx="8"/>
  <text x="95" y="116" text-anchor="middle" font-size="14">Hive.Swarm</text>
  <text x="95" y="134" text-anchor="middle" font-size="11" class="muted">DynamicSupervisor</text>

  <circle class="box" cx="285" cy="60" r="32"/>
  <text x="285" y="65" text-anchor="middle" font-size="13">:planner</text>
  <circle class="box" cx="285" cy="185" r="32"/>
  <text x="285" y="190" text-anchor="middle" font-size="13">:executor</text>
  <circle class="box" cx="440" cy="122" r="32"/>
  <text x="440" y="127" text-anchor="middle" font-size="13">:critic</text>

  <path class="edge" d="M 170 112 L 250 72"/>
  <path class="edge" d="M 170 130 L 250 173"/>
  <text x="200" y="94" font-size="11" class="muted">spawns</text>

  <path class="edge" d="M 285 92 L 285 153" marker-start="url(#arrow)"/>
  <path class="edge" d="M 312 75 L 410 108" marker-start="url(#arrow)"/>
  <path class="edge" d="M 312 170 L 410 137" marker-start="url(#arrow)"/>
  <text x="295" y="127" font-size="11" class="accent">send by id</text>

  <rect class="box" x="555" y="90" width="150" height="62" rx="8"/>
  <text x="630" y="113" text-anchor="middle" font-size="14">Hive.Registry</text>
  <text x="630" y="132" text-anchor="middle" font-size="11" class="muted">id -&gt; pid (ETS)</text>
  <path class="dashed" d="M 472 118 L 553 118"/>
  <text x="480" y="108" font-size="11" class="muted">lookup</text>
</svg>
