<svg xmlns="http://www.w3.org/2000/svg" viewBox="0 0 720 250" role="img"
     font-family="system-ui, -apple-system, 'Segoe UI', sans-serif" font-size="13">
  <style>
    svg { color: #1f2328; }
    .muted { fill: #656d76; }
    .accent { stroke: #8250df; }
    .box { stroke: currentColor; fill: none; }
    text { fill: currentColor; }
    .edge { stroke: currentColor; fill: none; marker-end: url(#arrow); }
    .mono { font-family: ui-monospace, 'SF Mono', Menlo, monospace; font-size: 12px; }
    @media (prefers-color-scheme: dark) {
      svg { color: #e6edf3; }
      .muted { fill: #8b949e; }
      .accent { stroke: #a371f7; }
    }
  </style>
  <defs>
    <marker id="arrow" viewBox="0 0 10 10" refX="9" refY="5" markerWidth="7" markerHeight="7" orient="auto-start-reverse">
      <path d="M 0 0 L 10 5 L 0 10 z" fill="currentColor"/>
    </marker>
  </defs>
  <text class="muted" x="20" y="30" font-size="11">TIER A &#183; retrieval grading</text>
  <rect class="box" x="20" y="45" width="160" height="50" rx="6"/>
  <text class="mono" x="100" y="66" text-anchor="middle">retrieval.jsonl</text>
  <text class="muted" x="100" y="84" text-anchor="middle" font-size="11">queries + gold labels</text>
  <path class="edge" d="M 180 70 L 268 70"/>
  <text class="muted" x="224" y="58" text-anchor="middle" font-size="11">rank corpus</text>
  <rect class="box" x="270" y="45" width="140" height="50" rx="6"/>
  <text x="340" y="75" text-anchor="middle">search</text>
  <path class="edge" d="M 410 70 L 498 70"/>
  <text class="muted" x="454" y="58" text-anchor="middle" font-size="11">score vs gold</text>
  <rect class="box" x="500" y="45" width="200" height="50" rx="6"/>
  <text x="600" y="66" text-anchor="middle">nDCG@10 &#183; Recall &#183; MRR</text>
  <text class="muted" x="600" y="84" text-anchor="middle" font-size="11">+ optional LLM judge</text>
  <text class="muted" x="20" y="150" font-size="11">TIER B &#183; agentic downstream</text>
  <rect class="box" x="20" y="165" width="160" height="50" rx="6"/>
  <text class="mono" x="100" y="186" text-anchor="middle">tasks.jsonl</text>
  <text class="muted" x="100" y="204" text-anchor="middle" font-size="11">unguessable questions</text>
  <path class="edge" d="M 180 190 L 268 190"/>
  <text class="muted" x="224" y="178" text-anchor="middle" font-size="11">ask</text>
  <rect class="box" x="270" y="165" width="140" height="50" rx="6"/>
  <text class="mono" x="340" y="186" text-anchor="middle">claude -p</text>
  <text class="muted" x="340" y="204" text-anchor="middle" font-size="11">one tool: search</text>
  <path class="edge" d="M 410 190 L 498 190"/>
  <text class="muted" x="454" y="178" text-anchor="middle" font-size="11">grade answers</text>
  <rect class="box" x="500" y="165" width="200" height="50" rx="6"/>
  <text x="600" y="195" text-anchor="middle">accuracy</text>
</svg>
