<svg xmlns="http://www.w3.org/2000/svg" viewBox="0 0 720 200" role="img" font-family="system-ui, -apple-system, 'Segoe UI', sans-serif" font-size="13">
  <style>
    svg { color: #1f2328; }
    text { fill: currentColor; }
    .muted { fill: #656d76; }
    .box { stroke: currentColor; fill: none; stroke-width: 1.2; }
    .accent { stroke: #8250df; fill: none; stroke-width: 1.4; }
    .edge { stroke: currentColor; fill: none; stroke-width: 1.2; marker-end: url(#arrow); }
    .head { fill: currentColor; }
    @media (prefers-color-scheme: dark) {
      svg { color: #e6edf3; }
      .muted { fill: #8b949e; }
      .accent { stroke: #a371f7; }
    }
  </style>
  <defs>
    <marker id="arrow" viewBox="0 0 10 10" refX="9" refY="5" markerWidth="7" markerHeight="7" orient="auto-start-reverse">
      <path d="M0,0 L10,5 L0,10 z" class="head"/>
    </marker>
  </defs>
  <rect class="box" x="25" y="35" width="130" height="34" rx="6"/>
  <text x="90" y="56" text-anchor="middle">vcfs mount</text>
  <rect class="box" x="25" y="120" width="130" height="34" rx="6"/>
  <text x="90" y="141" text-anchor="middle">/tmp (ext4)</text>

  <path class="edge" d="M155,52 C210,54 210,90 246,94"/>
  <path class="edge" d="M155,137 C210,135 210,104 246,100"/>
  <text class="muted" x="200" y="90" text-anchor="middle" font-size="11">same params</text>

  <rect class="accent" x="250" y="77" width="200" height="44" rx="6"/>
  <text x="350" y="95" text-anchor="middle">fio workloads</text>
  <text class="muted" x="350" y="112" text-anchor="middle" font-size="11">+ create/stat/delete</text>

  <path class="edge" d="M450,99 L531,99"/>
  <text class="muted" x="490" y="86" text-anchor="middle" font-size="11">report</text>

  <rect class="box" x="535" y="77" width="165" height="44" rx="6"/>
  <text x="617" y="95" text-anchor="middle">MiB/s, IOPS, files/s</text>
  <text class="muted" x="617" y="112" text-anchor="middle" font-size="11">compare relatively</text>
</svg>
