<svg xmlns="http://www.w3.org/2000/svg" viewBox="0 0 720 190" role="img"
     font-family="system-ui, -apple-system, 'Segoe UI', sans-serif">
  <style>
    svg { color: #1f2328; }
    .muted { fill: #656d76; }
    .accent { fill: #8250df; }
    text { fill: currentColor; }
    .box { stroke: currentColor; fill: none; }
    .edge { stroke: currentColor; fill: none; marker-end: url(#arrow); }
    @media (prefers-color-scheme: dark) {
      svg { color: #e6edf3; }
      .muted { fill: #8b949e; }
      .accent { fill: #a371f7; }
    }
  </style>
  <defs>
    <marker id="arrow" viewBox="0 0 10 10" refX="9" refY="5" markerWidth="7" markerHeight="7" orient="auto-start-reverse">
      <path d="M0,0 L10,5 L0,10 z" fill="currentColor"/>
    </marker>
  </defs>

  <rect class="box" x="20" y="25" width="170" height="56" rx="8"/>
  <text x="105" y="48" text-anchor="middle" font-size="14" font-weight="600">ray-demo driver</text>
  <text x="105" y="66" text-anchor="middle" font-size="11" class="muted">doubles as health check</text>

  <line class="edge" x1="190" y1="53" x2="278" y2="53"/>
  <text x="234" y="43" text-anchor="middle" font-size="12" class="muted">fan out tasks</text>

  <rect class="box" x="280" y="25" width="200" height="56" rx="8"/>
  <text x="380" y="48" text-anchor="middle" font-size="14" font-weight="600">ray-head</text>
  <text x="380" y="66" text-anchor="middle" font-size="11" class="muted">GCS :6379 · client :10001</text>

  <text x="600" y="53" text-anchor="middle" font-size="11" class="accent">tasks land on every node</text>

  <rect class="box" x="180" y="125" width="170" height="52" rx="8"/>
  <text x="265" y="147" text-anchor="middle" font-size="13" font-weight="600">ray-worker-0</text>
  <text x="265" y="164" text-anchor="middle" font-size="10" class="muted">joins over east-west</text>

  <rect class="box" x="410" y="125" width="170" height="52" rx="8"/>
  <text x="495" y="147" text-anchor="middle" font-size="13" font-weight="600">ray-worker-1</text>
  <text x="495" y="164" text-anchor="middle" font-size="10" class="muted">replicas: one line to scale</text>

  <line class="edge" x1="290" y1="125" x2="345" y2="81"/>
  <line class="edge" x1="470" y1="125" x2="415" y2="81"/>
  <text x="380" y="108" text-anchor="middle" font-size="12" class="muted">join GCS</text>
</svg>
