<svg xmlns="http://www.w3.org/2000/svg" viewBox="0 0 720 150" role="img"
     font-family="system-ui, -apple-system, 'Segoe UI', sans-serif">
  <style>
    svg { color: #1f2328; }
    .muted { fill: #656d76; }
    .accent { fill: #8250df; }
    text { fill: currentColor; }
    .box { stroke: currentColor; fill: none; }
    .edge { stroke: currentColor; fill: none; marker-end: url(#arrow); }
    @media (prefers-color-scheme: dark) {
      svg { color: #e6edf3; }
      .muted { fill: #8b949e; }
      .accent { fill: #a371f7; }
    }
  </style>
  <defs>
    <marker id="arrow" viewBox="0 0 10 10" refX="9" refY="5" markerWidth="7" markerHeight="7" orient="auto-start-reverse">
      <path d="M0,0 L10,5 L0,10 z" fill="currentColor"/>
    </marker>
  </defs>

  <rect class="box" x="15" y="70" width="130" height="52" rx="8"/>
  <text x="80" y="92" text-anchor="middle" font-size="13" font-weight="600">timer</text>
  <text x="80" y="109" text-anchor="middle" font-size="10" class="muted">daily 03:17 UTC</text>

  <line class="edge" x1="145" y1="96" x2="193" y2="96"/>
  <text x="169" y="86" text-anchor="middle" font-size="11" class="muted">runs</text>

  <rect class="box" x="195" y="70" width="160" height="52" rx="8"/>
  <text x="275" y="92" text-anchor="middle" font-size="13" font-weight="600">daily-scraper</text>
  <text x="275" y="109" text-anchor="middle" font-size="10" class="muted">uv app, oneshot unit</text>

  <rect class="box" x="195" y="8" width="160" height="38" rx="8"/>
  <text x="275" y="32" text-anchor="middle" font-size="12">GitHub API</text>

  <line class="edge" x1="275" y1="70" x2="275" y2="48"/>
  <text x="285" y="62" font-size="10" class="muted">fetch repo metrics</text>

  <line class="edge" x1="355" y1="96" x2="443" y2="96"/>
  <text x="399" y="86" text-anchor="middle" font-size="11" class="muted">write parquet</text>

  <rect class="box" x="445" y="70" width="170" height="52" rx="8"/>
  <text x="530" y="92" text-anchor="middle" font-size="12" font-weight="600">/var/lib/daily-scraper</text>
  <text x="530" y="109" text-anchor="middle" font-size="10" class="muted">parquet/ (zstd)</text>

  <line class="edge" x1="615" y1="96" x2="653" y2="96" stroke-dasharray="4 3"/>
  <text x="634" y="86" text-anchor="middle" font-size="10" class="muted">sync</text>

  <rect class="box" x="655" y="70" width="50" height="52" rx="8"/>
  <text x="680" y="92" text-anchor="middle" font-size="12" font-weight="600">S3</text>
  <text x="680" y="109" text-anchor="middle" font-size="9" class="muted">opt-in</text>
</svg>
