<svg xmlns="http://www.w3.org/2000/svg" viewBox="0 0 720 160" role="img"
     font-family="system-ui, -apple-system, 'Segoe UI', sans-serif">
  <style>
    svg { color: #1f2328; }
    text { fill: currentColor; }
    .muted { fill: #656d76; }
    .box { stroke: currentColor; fill: none; }
    .edge { stroke: currentColor; fill: none; marker-end: url(#arrow); }
    .arrow { fill: #1f2328; }
    .group { stroke: #8250df; fill: none; stroke-dasharray: 6 4; }
    .accent { fill: #8250df; }
    @media (prefers-color-scheme: dark) {
      svg { color: #e6edf3; }
      .muted { fill: #8b949e; }
      .arrow { fill: #e6edf3; }
      .group { stroke: #a371f7; }
      .accent { fill: #a371f7; }
    }
  </style>
  <defs>
    <marker id="arrow" viewBox="0 0 10 10" refX="9" refY="5" markerWidth="7" markerHeight="7" orient="auto-start-reverse">
      <path d="M0,0 L10,5 L0,10 z" class="arrow"/>
    </marker>
  </defs>
  <rect x="250" y="14" width="440" height="132" rx="8" class="box"/>
  <text x="268" y="34" font-size="12">survival VM</text>
  <rect x="280" y="40" width="150" height="40" rx="6" class="box"/>
  <text x="355" y="64" font-size="12" text-anchor="middle">Velocity</text>
  <rect x="280" y="102" width="150" height="40" rx="6" class="box"/>
  <text x="355" y="126" font-size="12" text-anchor="middle">Geyser + Floodgate</text>
  <rect x="520" y="60" width="140" height="44" rx="6" class="box"/>
  <text x="590" y="79" font-size="12" text-anchor="middle">Paper</text>
  <text x="590" y="95" font-size="11" text-anchor="middle" class="muted">:25566 private</text>
  <rect x="40" y="40" width="150" height="40" rx="6" class="box"/>
  <text x="115" y="64" font-size="12" text-anchor="middle">Java clients</text>
  <line x1="190" y1="60" x2="272" y2="60" class="edge"/>
  <text x="231" y="52" font-size="11" text-anchor="middle" class="muted">:25565 tcp</text>
  <rect x="40" y="102" width="150" height="40" rx="6" class="box"/>
  <text x="115" y="126" font-size="12" text-anchor="middle">Bedrock clients</text>
  <line x1="190" y1="122" x2="272" y2="122" class="edge"/>
  <text x="231" y="114" font-size="11" text-anchor="middle" class="muted">:19132 udp</text>
  <line x1="355" y1="102" x2="355" y2="88" class="edge"/>
  <line x1="430" y1="60" x2="512" y2="78" class="edge"/>
  <text x="470" y="60" font-size="11" text-anchor="middle" class="muted">forwarding</text>
</svg>
