<svg xmlns="http://www.w3.org/2000/svg" viewBox="0 0 720 240" role="img"
     font-family="system-ui, -apple-system, 'Segoe UI', sans-serif">
  <style>
    svg { color: #1f2328; }
    .muted { fill: #656d76; }
    .accent { fill: #8250df; }
    .accent-stroke { stroke: #8250df; }
    .box { stroke: currentColor; fill: none; }
    text { fill: currentColor; }
    .edge { stroke: currentColor; fill: none; marker-end: url(#arrow); }
    .dashed { stroke: currentColor; fill: none; stroke-dasharray: 4 3; marker-end: url(#arrow); }
    .arrowhead { fill: currentColor; }
    @media (prefers-color-scheme: dark) {
      svg { color: #e6edf3; }
      .muted { fill: #8b949e; }
      .accent { fill: #a371f7; }
      .accent-stroke { stroke: #a371f7; }
    }
  </style>
  <defs>
    <marker id="arrow" viewBox="0 0 10 10" refX="9" refY="5" markerWidth="7" markerHeight="7" orient="auto-start-reverse">
      <path d="M 0 0 L 10 5 L 0 10 z" class="arrowhead"/>
    </marker>
  </defs>

  <rect class="box" x="20" y="94" width="170" height="52" rx="8"/>
  <text x="105" y="117" text-anchor="middle" font-size="13">shell · script · cron</text>
  <text x="105" y="135" text-anchor="middle" font-size="11" class="muted">anything that writes SQL</text>

  <path class="edge" d="M 190 120 L 268 120"/>
  <text x="229" y="108" text-anchor="middle" font-size="11" class="muted">write rows</text>

  <rect class="box accent-stroke" x="270" y="88" width="170" height="64" rx="10"/>
  <text x="355" y="115" text-anchor="middle" font-size="14" class="accent">SQLite file</text>
  <text x="355" y="134" text-anchor="middle" font-size="11" class="muted">bossbars.db · book.db</text>

  <path class="edge" d="M 440 104 L 518 56"/>
  <path class="edge" d="M 440 120 L 518 128"/>
  <path class="edge" d="M 440 136 L 518 202"/>
  <text x="462" y="88" font-size="11" class="muted">~200ms</text>

  <rect class="box" x="520" y="32" width="180" height="46" rx="8"/>
  <text x="610" y="60" text-anchor="middle" font-size="13">boss bar HUD</text>
  <rect class="box" x="520" y="106" width="180" height="46" rx="8"/>
  <text x="610" y="134" text-anchor="middle" font-size="13">open book</text>
  <rect class="box" x="520" y="180" width="180" height="46" rx="8"/>
  <text x="610" y="208" text-anchor="middle" font-size="13">xp orb</text>
</svg>
