<svg xmlns="http://www.w3.org/2000/svg" viewBox="0 0 720 190" role="img"
     font-family="system-ui, -apple-system, 'Segoe UI', sans-serif">
  <style>
    svg { color: #1f2328; }
    .muted { fill: #656d76; }
    .accent { fill: #8250df; }
    text { fill: currentColor; }
    .box { stroke: currentColor; fill: none; }
    .edge { stroke: currentColor; fill: none; marker-end: url(#arrow); }
    @media (prefers-color-scheme: dark) {
      svg { color: #e6edf3; }
      .muted { fill: #8b949e; }
      .accent { fill: #a371f7; }
    }
  </style>
  <defs>
    <marker id="arrow" viewBox="0 0 10 10" refX="9" refY="5" markerWidth="7" markerHeight="7" orient="auto-start-reverse">
      <path d="M0,0 L10,5 L0,10 z" fill="currentColor"/>
    </marker>
  </defs>

  <rect class="box" x="20" y="73" width="150" height="56" rx="8"/>
  <text x="95" y="96" text-anchor="middle" font-size="14" font-weight="600">builder VM</text>
  <text x="95" y="114" text-anchor="middle" font-size="11" class="muted">warm /nix/store</text>

  <line class="edge" x1="170" y1="101" x2="285" y2="101"/>
  <text x="227" y="91" text-anchor="middle" font-size="12" class="muted">build 3 closures</text>

  <rect class="box" x="287" y="73" width="160" height="56" rx="8"/>
  <text x="367" y="96" text-anchor="middle" font-size="14" font-weight="600">regional CAS</text>
  <text x="367" y="114" text-anchor="middle" font-size="11" class="muted">dedups shared paths</text>

  <line class="edge" x1="447" y1="90" x2="540" y2="46"/>
  <line class="edge" x1="447" y1="101" x2="540" y2="101"/>
  <line class="edge" x1="447" y1="112" x2="540" y2="156"/>
  <text x="493" y="76" text-anchor="middle" font-size="12" class="muted">activate</text>

  <rect class="box" x="542" y="22" width="150" height="44" rx="8"/>
  <text x="617" y="49" text-anchor="middle" font-size="13" font-weight="600">web</text>
  <rect class="box" x="542" y="79" width="150" height="44" rx="8"/>
  <text x="617" y="106" text-anchor="middle" font-size="13" font-weight="600">worker</text>
  <rect class="box" x="542" y="136" width="150" height="44" rx="8"/>
  <text x="617" y="163" text-anchor="middle" font-size="13" font-weight="600">edge</text>

  <text x="20" y="172" font-size="12" class="muted">ix up .#web .#worker .#edge --build-vm builder</text>
</svg>
