<svg xmlns="http://www.w3.org/2000/svg" viewBox="0 0 720 210" role="img"
     font-family="system-ui, -apple-system, 'Segoe UI', sans-serif">
  <style>
    svg { color: #1f2328; }
    .muted { fill: #656d76; }
    .accent { fill: #8250df; }
    .accent-stroke { stroke: #8250df; }
    .box { stroke: currentColor; fill: none; }
    text { fill: currentColor; }
    .edge { stroke: currentColor; fill: none; marker-end: url(#arrow); }
    .dashed { stroke: currentColor; fill: none; stroke-dasharray: 4 3; marker-end: url(#arrow); }
    .arrowhead { fill: currentColor; }
    @media (prefers-color-scheme: dark) {
      svg { color: #e6edf3; }
      .muted { fill: #8b949e; }
      .accent { fill: #a371f7; }
      .accent-stroke { stroke: #a371f7; }
    }
  </style>
  <defs>
    <marker id="arrow" viewBox="0 0 10 10" refX="9" refY="5" markerWidth="7" markerHeight="7" orient="auto-start-reverse">
      <path d="M 0 0 L 10 5 L 0 10 z" class="arrowhead"/>
    </marker>
  </defs>

  <rect class="box" x="20" y="74" width="130" height="52" rx="8"/>
  <text x="85" y="104" text-anchor="middle" font-size="13">Mac display</text>

  <path class="edge" d="M 150 100 L 218 100"/>
  <text x="184" y="88" text-anchor="middle" font-size="11" class="muted">capture</text>

  <rect class="box" x="220" y="70" width="180" height="60" rx="8"/>
  <text x="310" y="95" text-anchor="middle" font-size="13">hevc_videotoolbox</text>
  <text x="310" y="114" text-anchor="middle" font-size="11" class="muted">hardware H.265</text>

  <path class="edge" d="M 400 100 L 478 100"/>
  <text x="439" y="80" text-anchor="middle" font-size="11" class="muted">fMP4 HLS</text>
  <text x="439" y="120" text-anchor="middle" font-size="11" class="muted">HTTP PUT</text>

  <rect class="box accent-stroke" x="480" y="70" width="170" height="60" rx="8"/>
  <text x="565" y="95" text-anchor="middle" font-size="13" class="accent">screencast-ingest</text>
  <text x="565" y="114" text-anchor="middle" font-size="11" class="muted">one server, all sessions</text>

  <path class="edge" d="M 585 70 L 605 46"/>
  <rect class="box" x="530" y="10" width="170" height="34" rx="8"/>
  <text x="615" y="32" text-anchor="middle" font-size="11">live view + replay (browser)</text>

  <path class="edge" d="M 585 130 L 605 154"/>
  <rect class="box" x="530" y="156" width="170" height="34" rx="8"/>
  <text x="615" y="178" text-anchor="middle" font-size="11">sessions on disk</text>
</svg>
