<svg xmlns="http://www.w3.org/2000/svg" viewBox="0 0 720 250" role="img"
     font-family="system-ui, -apple-system, 'Segoe UI', sans-serif" font-size="13">
  <style>
    svg { color: #1f2328; }
    .muted { fill: #656d76; }
    .accent { stroke: #8250df; }
    .accent-t { fill: #8250df; }
    .box { stroke: currentColor; fill: none; }
    text { fill: currentColor; }
    .edge { stroke: currentColor; fill: none; marker-end: url(#arrow); }
    .back { fill: none; stroke-dasharray: 5 4; marker-end: url(#arrow-accent); }
    .mono { font-family: ui-monospace, 'SF Mono', Menlo, monospace; font-size: 12px; }
    @media (prefers-color-scheme: dark) {
      svg { color: #e6edf3; }
      .muted { fill: #8b949e; }
      .accent { stroke: #a371f7; }
      .accent-t { fill: #a371f7; }
    }
  </style>
  <defs>
    <marker id="arrow" viewBox="0 0 10 10" refX="9" refY="5" markerWidth="7" markerHeight="7" orient="auto-start-reverse">
      <path d="M 0 0 L 10 5 L 0 10 z" fill="currentColor"/>
    </marker>
    <marker id="arrow-accent" viewBox="0 0 10 10" refX="9" refY="5" markerWidth="7" markerHeight="7" orient="auto-start-reverse">
      <path class="accent-t" d="M 0 0 L 10 5 L 0 10 z"/>
    </marker>
  </defs>
  <rect class="box" x="20" y="90" width="170" height="64" rx="6"/>
  <text x="105" y="115" text-anchor="middle">guest compositor</text>
  <text class="muted" x="105" y="135" text-anchor="middle" font-size="11">vsock / unix socket</text>
  <path class="edge" d="M 190 110 L 268 110"/>
  <text class="muted" x="229" y="98" text-anchor="middle" font-size="11">LZ4 tiles</text>
  <rect class="box" x="270" y="90" width="170" height="64" rx="6"/>
  <text class="mono" x="355" y="115" text-anchor="middle">panes-host</text>
  <text class="muted" x="355" y="135" text-anchor="middle" font-size="11">AppKit main thread</text>
  <path class="edge" d="M 440 110 L 518 110"/>
  <text class="muted" x="479" y="98" text-anchor="middle" font-size="11">present @ panel Hz</text>
  <rect class="box" x="520" y="90" width="180" height="64" rx="6"/>
  <text x="610" y="115" text-anchor="middle">NSWindow per toplevel</text>
  <text class="muted" x="610" y="135" text-anchor="middle" font-size="11">CAMetalLayer, 120 Hz</text>
  <path class="back accent" d="M 300 154 C 250 190 190 185 140 156"/>
  <text class="accent-t" x="222" y="196" text-anchor="middle" font-size="11">Ack{id, seq} after present</text>
  <path class="back accent" d="M 560 90 C 480 35 250 35 130 88"/>
  <text class="accent-t" x="350" y="30" text-anchor="middle" font-size="11">keys &#183; mouse &#183; scroll as evdev (NSEvent &#8594; guest seat)</text>
</svg>
