<svg xmlns="http://www.w3.org/2000/svg" viewBox="0 0 620 190" role="img"
     font-family="system-ui, -apple-system, 'Segoe UI', sans-serif">
  <style>
    svg { color: #1f2328; }
    .muted { fill: #656d76; }
    .accent { fill: #8250df; }
    .box { stroke: currentColor; fill: none; }
    text { fill: currentColor; }
    .edge { stroke: currentColor; fill: none; marker-end: url(#arrow); }
    @media (prefers-color-scheme: dark) {
      svg { color: #e6edf3; }
      .muted { fill: #8b949e; }
      .accent { fill: #a371f7; }
    }
  </style>
  <defs>
    <marker id="arrow" viewBox="0 0 10 10" refX="9" refY="5" markerWidth="7" markerHeight="7"
            orient="auto-start-reverse">
      <path d="M 0 0 L 10 5 L 0 10 z" fill="currentColor"/>
    </marker>
  </defs>

  <rect class="box" x="16" y="70" width="118" height="48" rx="8"/>
  <text x="75" y="99" text-anchor="middle" font-size="13" font-weight="600">executor</text>

  <line class="edge" x1="134" y1="82" x2="236" y2="40"/>
  <line class="edge" x1="134" y1="94" x2="236" y2="94"/>
  <line class="edge" x1="134" y1="106" x2="236" y2="148"/>
  <text x="185" y="70" text-anchor="middle" font-size="11" class="muted">explore()</text>

  <rect class="box" x="238" y="20" width="150" height="40" rx="8"/>
  <text x="313" y="45" text-anchor="middle" font-size="11">worktree A · pi --print</text>
  <rect class="box" x="238" y="74" width="150" height="40" rx="8"/>
  <text x="313" y="99" text-anchor="middle" font-size="11">worktree B · pi --print</text>
  <rect class="box" x="238" y="128" width="150" height="40" rx="8"/>
  <text x="313" y="153" text-anchor="middle" font-size="11">worktree C · pi --print</text>

  <line class="edge" x1="388" y1="40" x2="466" y2="82"/>
  <line class="edge" x1="388" y1="94" x2="466" y2="94"/>
  <line class="edge" x1="388" y1="148" x2="466" y2="106"/>

  <rect class="box" x="468" y="70" width="130" height="48" rx="8"/>
  <text x="533" y="90" text-anchor="middle" font-size="12" font-weight="600">score</text>
  <text x="533" y="106" text-anchor="middle" font-size="10" class="muted">exit code, then diff</text>

  <path class="edge" d="M 533 118 C 533 178 120 178 80 122"/>
  <text x="310" y="186" text-anchor="middle" font-size="11" class="accent">winning patch back to the executor</text>
</svg>
