<svg xmlns="http://www.w3.org/2000/svg" viewBox="0 0 680 180" role="img"
     font-family="system-ui, -apple-system, 'Segoe UI', sans-serif">
  <style>
    svg { color: #1f2328; }
    .muted { fill: #656d76; }
    .accent { fill: #8250df; }
    .box { stroke: currentColor; fill: none; }
    text { fill: currentColor; }
    .edge { stroke: currentColor; fill: none; marker-end: url(#arrow); }
    @media (prefers-color-scheme: dark) {
      svg { color: #e6edf3; }
      .muted { fill: #8b949e; }
      .accent { fill: #a371f7; }
    }
  </style>
  <defs>
    <marker id="arrow" viewBox="0 0 10 10" refX="9" refY="5" markerWidth="7" markerHeight="7"
            orient="auto-start-reverse">
      <path d="M 0 0 L 10 5 L 0 10 z" fill="currentColor"/>
    </marker>
  </defs>

  <rect class="box" x="20" y="64" width="150" height="54" rx="8"/>
  <text x="95" y="87" text-anchor="middle" font-size="13" font-weight="600">result JSON</text>
  <text x="95" y="105" text-anchor="middle" font-size="11" class="muted">--json-out</text>

  <line class="edge" x1="170" y1="91" x2="248" y2="91"/>
  <text x="209" y="76" text-anchor="middle" font-size="11" class="muted">data.json</text>

  <rect class="box" x="250" y="64" width="160" height="54" rx="8"/>
  <text x="330" y="87" text-anchor="middle" font-size="13" font-weight="600">viewer SPA</text>
  <text x="330" y="105" text-anchor="middle" font-size="11" class="muted">127.0.0.1:8777</text>

  <line class="edge" x1="410" y1="78" x2="466" y2="42"/>
  <line class="edge" x1="410" y1="91" x2="466" y2="91"/>
  <line class="edge" x1="410" y1="104" x2="466" y2="140"/>

  <rect class="box" x="468" y="22" width="192" height="36" rx="8"/>
  <text x="564" y="45" text-anchor="middle" font-size="12">summary cards</text>
  <rect class="box" x="468" y="73" width="192" height="36" rx="8"/>
  <text x="564" y="96" text-anchor="middle" font-size="12">behaviors panel</text>
  <rect class="box" x="468" y="124" width="192" height="36" rx="8"/>
  <text x="564" y="147" text-anchor="middle" font-size="12" class="accent">full action timeline</text>
</svg>
