<svg xmlns="http://www.w3.org/2000/svg" viewBox="0 0 720 230" role="img"
     font-family="system-ui, -apple-system, 'Segoe UI', sans-serif">
  <style>
    svg { color: #1f2328; }
    .muted { fill: #656d76; }
    .accent { fill: #8250df; }
    .accent-stroke { stroke: #8250df; }
    .box { stroke: currentColor; fill: none; }
    text { fill: currentColor; }
    .edge { stroke: currentColor; fill: none; marker-end: url(#arrow); }
    .dashed { stroke: currentColor; fill: none; stroke-dasharray: 4 3; marker-end: url(#arrow); }
    .arrowhead { fill: currentColor; }
    @media (prefers-color-scheme: dark) {
      svg { color: #e6edf3; }
      .muted { fill: #8b949e; }
      .accent { fill: #a371f7; }
      .accent-stroke { stroke: #a371f7; }
    }
  </style>
  <defs>
    <marker id="arrow" viewBox="0 0 10 10" refX="9" refY="5" markerWidth="7" markerHeight="7" orient="auto-start-reverse">
      <path d="M 0 0 L 10 5 L 0 10 z" class="arrowhead"/>
    </marker>
  </defs>

  <rect class="box" x="20" y="25" width="160" height="38" rx="8"/>
  <text x="100" y="49" text-anchor="middle" font-size="13">TEXT argument</text>
  <rect class="box" x="20" y="95" width="160" height="38" rx="8"/>
  <text x="100" y="119" text-anchor="middle" font-size="13">--file notes.txt</text>
  <rect class="box" x="20" y="165" width="160" height="38" rx="8"/>
  <text x="100" y="189" text-anchor="middle" font-size="13">stdin (LLM tokens)</text>

  <path class="edge" d="M 180 46 L 296 100"/>
  <path class="edge" d="M 180 114 L 296 114"/>
  <text x="215" y="106" font-size="11" class="muted">batch convert</text>
  <path class="edge" d="M 180 182 L 296 130"/>
  <text x="196" y="163" font-size="11" class="accent">WebSocket stream</text>

  <rect class="box" x="300" y="84" width="170" height="62" rx="8"/>
  <text x="385" y="109" text-anchor="middle" font-size="14">elevenlabs-say</text>
  <text x="385" y="128" text-anchor="middle" font-size="11" class="muted">ElevenLabs TTS API</text>

  <path class="edge" d="M 470 103 L 554 66"/>
  <text x="490" y="72" font-size="11" class="muted">play (ffplay)</text>
  <rect class="box" x="556" y="40" width="144" height="40" rx="8"/>
  <text x="628" y="65" text-anchor="middle" font-size="13">speakers</text>

  <path class="edge" d="M 470 128 L 554 168"/>
  <text x="492" y="164" font-size="11" class="muted">--output</text>
  <rect class="box" x="556" y="150" width="144" height="40" rx="8"/>
  <text x="628" y="175" text-anchor="middle" font-size="13">out.mp3</text>
</svg>
