<svg xmlns="http://www.w3.org/2000/svg" viewBox="0 0 720 220" role="img"
     font-family="system-ui, -apple-system, 'Segoe UI', sans-serif" font-size="13">
  <style>
    svg { color: #1f2328; }
    .muted { fill: #656d76; }
    .accent { stroke: #8250df; }
    .box { stroke: currentColor; fill: none; rx: 6; }
    text { fill: currentColor; }
    .edge { stroke: currentColor; fill: none; marker-end: url(#arrow); }
    @media (prefers-color-scheme: dark) {
      svg { color: #e6edf3; }
      .muted { fill: #8b949e; }
      .accent { stroke: #a371f7; }
    }
  </style>
  <defs>
    <marker id="arrow" viewBox="0 0 10 10" refX="9" refY="5" markerWidth="7" markerHeight="7" orient="auto-start-reverse">
      <path d="M 0 0 L 10 5 L 0 10 z" fill="currentColor"/>
    </marker>
  </defs>
  <rect class="box" x="20" y="20" width="140" height="32" rx="6"/>
  <text x="90" y="41" text-anchor="middle">code</text>
  <rect class="box" x="20" y="66" width="140" height="32" rx="6"/>
  <text x="90" y="87" text-anchor="middle">claude / codex</text>
  <rect class="box" x="20" y="112" width="140" height="32" rx="6"/>
  <text x="90" y="133" text-anchor="middle">shell</text>
  <rect class="box" x="20" y="158" width="140" height="32" rx="6"/>
  <text x="90" y="179" text-anchor="middle">slack / linear / github</text>
  <path class="edge" d="M 160 36 C 210 36 220 85 268 96"/>
  <path class="edge" d="M 160 82 C 200 82 220 95 268 101"/>
  <path class="edge" d="M 160 128 C 200 128 220 115 268 109"/>
  <path class="edge" d="M 160 174 C 210 174 220 125 268 114"/>
  <text class="muted" x="200" y="70" font-size="11">indexer writes</text>
  <rect class="box" x="270" y="75" width="170" height="60" rx="6"/>
  <text x="355" y="100" text-anchor="middle">index corpus</text>
  <text class="muted" x="355" y="120" text-anchor="middle" font-size="11">Mixedbread store</text>
  <path class="edge" d="M 440 105 L 528 105"/>
  <text class="muted" x="484" y="93" text-anchor="middle" font-size="11">search / grep / recent</text>
  <rect class="box" x="530" y="75" width="170" height="60" rx="6"/>
  <text x="615" y="100" text-anchor="middle">ranked hits</text>
  <text class="muted" x="615" y="120" text-anchor="middle" font-size="11">path &#183; score &#183; provenance</text>
</svg>
