<svg xmlns="http://www.w3.org/2000/svg" viewBox="0 0 720 230" role="img"
     font-family="system-ui, -apple-system, 'Segoe UI', sans-serif">
  <style>
    svg { color: #1f2328; }
    .muted { fill: #656d76; }
    .accent { fill: #8250df; }
    .accent-stroke { stroke: #8250df; }
    .box { stroke: currentColor; fill: none; }
    text { fill: currentColor; }
    .edge { stroke: currentColor; fill: none; marker-end: url(#arrow); }
    .dashed { stroke: currentColor; fill: none; stroke-dasharray: 4 3; marker-end: url(#arrow); }
    .arrowhead { fill: currentColor; }
    @media (prefers-color-scheme: dark) {
      svg { color: #e6edf3; }
      .muted { fill: #8b949e; }
      .accent { fill: #a371f7; }
      .accent-stroke { stroke: #a371f7; }
    }
  </style>
  <defs>
    <marker id="arrow" viewBox="0 0 10 10" refX="9" refY="5" markerWidth="7" markerHeight="7" orient="auto-start-reverse">
      <path d="M 0 0 L 10 5 L 0 10 z" class="arrowhead"/>
    </marker>
  </defs>

  <rect class="box" x="20" y="22" width="190" height="36" rx="8"/>
  <text x="115" y="45" text-anchor="middle" font-size="13">gcal CLI</text>
  <rect class="box" x="20" y="79" width="190" height="36" rx="8"/>
  <text x="115" y="102" text-anchor="middle" font-size="13">MCP calendar_* tools</text>
  <rect class="box" x="20" y="136" width="190" height="36" rx="8"/>
  <text x="115" y="159" text-anchor="middle" font-size="13">ix_google.calendar</text>

  <path class="edge" d="M 210 42 L 288 80"/>
  <path class="edge" d="M 210 97 L 288 97"/>
  <path class="edge" d="M 210 152 L 288 114"/>

  <rect class="box accent-stroke" x="290" y="62" width="200" height="70" rx="8"/>
  <text x="390" y="90" text-anchor="middle" font-size="14">google-calendar crate</text>
  <text x="390" y="110" text-anchor="middle" font-size="11" class="muted">list · get · create · cancel</text>

  <path class="edge" d="M 490 97 L 558 97"/>
  <text x="524" y="86" text-anchor="middle" font-size="11" class="muted">HTTPS</text>

  <rect class="box" x="560" y="62" width="140" height="70" rx="8"/>
  <text x="630" y="90" text-anchor="middle" font-size="13">Calendar v3</text>
  <text x="630" y="110" text-anchor="middle" font-size="11" class="muted">events API</text>

  <path class="dashed" d="M 390 132 L 390 172"/>
  <text x="400" y="156" font-size="11" class="muted">OAuth via google-auth</text>
  <rect class="box" x="240" y="174" width="300" height="38" rx="8"/>
  <text x="390" y="198" text-anchor="middle" font-size="12">~/.config/google/token.json (shared with gmail)</text>
</svg>
