<svg xmlns="http://www.w3.org/2000/svg" viewBox="0 0 720 190" role="img"
     font-family="system-ui, -apple-system, 'Segoe UI', sans-serif">
  <style>
    svg { color: #1f2328; }
    .muted { fill: #656d76; }
    .accent { fill: #8250df; }
    text { fill: currentColor; }
    .box { stroke: currentColor; fill: none; }
    .edge { stroke: currentColor; fill: none; marker-end: url(#arrow); }
    @media (prefers-color-scheme: dark) {
      svg { color: #e6edf3; }
      .muted { fill: #8b949e; }
      .accent { fill: #a371f7; }
    }
  </style>
  <defs>
    <marker id="arrow" viewBox="0 0 10 10" refX="9" refY="5" markerWidth="7" markerHeight="7" orient="auto-start-reverse">
      <path d="M0,0 L10,5 L0,10 z" fill="currentColor"/>
    </marker>
  </defs>

  <rect class="box" x="20" y="70" width="170" height="56" rx="8"/>
  <text x="105" y="93" text-anchor="middle" font-size="14" font-weight="600">ix secret store</text>
  <text x="105" y="111" text-anchor="middle" font-size="11" class="muted">github_token, set once</text>

  <line class="edge" x1="190" y1="85" x2="288" y2="40"/>
  <line class="edge" x1="190" y1="98" x2="288" y2="98"/>
  <line class="edge" x1="190" y1="111" x2="288" y2="156"/>
  <text x="239" y="76" text-anchor="middle" font-size="11" class="muted">materialize</text>

  <rect class="box" x="290" y="18" width="220" height="44" rx="8"/>
  <text x="400" y="37" text-anchor="middle" font-size="12" font-weight="600">agent-0</text>
  <text x="400" y="53" text-anchor="middle" font-size="10" class="muted">/run/secrets/github/token</text>

  <rect class="box" x="290" y="76" width="220" height="44" rx="8"/>
  <text x="400" y="95" text-anchor="middle" font-size="12" font-weight="600">agent-1</text>
  <text x="400" y="111" text-anchor="middle" font-size="10" class="muted">git credential helper</text>

  <rect class="box" x="290" y="134" width="220" height="44" rx="8"/>
  <text x="400" y="153" text-anchor="middle" font-size="12" font-weight="600">agent-2</text>
  <text x="400" y="169" text-anchor="middle" font-size="10" class="muted">no gh auth login</text>

  <line class="edge" x1="510" y1="98" x2="588" y2="98"/>
  <text x="549" y="88" text-anchor="middle" font-size="11" class="muted">HTTPS push / fetch</text>

  <rect class="box" x="590" y="70" width="110" height="56" rx="8"/>
  <text x="645" y="93" text-anchor="middle" font-size="13" font-weight="600">github.com</text>
  <text x="645" y="111" text-anchor="middle" font-size="10" class="accent">one identity</text>
</svg>
