<svg xmlns="http://www.w3.org/2000/svg" viewBox="0 0 720 200" role="img"
     font-family="system-ui, -apple-system, 'Segoe UI', sans-serif">
  <style>
    svg { color: #1f2328; }
    .muted { fill: #656d76; }
    .accent { fill: #8250df; }
    .accent-stroke { stroke: #8250df; }
    .box { stroke: currentColor; fill: none; }
    text { fill: currentColor; }
    .edge { stroke: currentColor; fill: none; marker-end: url(#arrow); }
    .dashed { stroke: currentColor; fill: none; stroke-dasharray: 4 3; marker-end: url(#arrow); }
    .arrowhead { fill: currentColor; }
    @media (prefers-color-scheme: dark) {
      svg { color: #e6edf3; }
      .muted { fill: #8b949e; }
      .accent { fill: #a371f7; }
      .accent-stroke { stroke: #a371f7; }
    }
  </style>
  <defs>
    <marker id="arrow" viewBox="0 0 10 10" refX="9" refY="5" markerWidth="7" markerHeight="7" orient="auto-start-reverse">
      <path d="M 0 0 L 10 5 L 0 10 z" class="arrowhead"/>
    </marker>
  </defs>

  <rect class="box" x="20" y="30" width="230" height="44" rx="8"/>
  <text x="135" y="57" text-anchor="middle" font-size="12">~/.claude/projects/**.jsonl</text>
  <rect class="box" x="20" y="120" width="230" height="44" rx="8"/>
  <text x="135" y="147" text-anchor="middle" font-size="12">~/.codex/sessions/**.jsonl</text>

  <path class="edge" d="M 250 58 L 318 88"/>
  <path class="edge" d="M 250 136 L 318 108"/>
  <text x="256" y="103" font-size="11" class="muted">turns + interrupts</text>

  <rect class="box" x="320" y="72" width="160" height="52" rx="8"/>
  <text x="400" y="103" text-anchor="middle" font-size="13">agent-insights.py</text>

  <path class="edge" d="M 480 98 L 528 98"/>

  <rect class="box" x="530" y="34" width="170" height="128" rx="8"/>
  <polyline class="accent-stroke" fill="none" stroke-width="2"
            points="548,140 575,118 602,126 629,96 656,102 684,72"/>
  <text x="615" y="180" text-anchor="middle" font-size="11" class="muted">interrupts per agent-hour, weekly</text>
</svg>
