<svg xmlns="http://www.w3.org/2000/svg" viewBox="0 0 720 190" role="img"
     font-family="system-ui, -apple-system, 'Segoe UI', sans-serif">
  <style>
    svg { color: #1f2328; }
    .muted { fill: #656d76; }
    .accent { fill: #8250df; }
    .accent-stroke { stroke: #8250df; }
    .box { stroke: currentColor; fill: none; }
    text { fill: currentColor; }
    .edge { stroke: currentColor; fill: none; marker-end: url(#arrow); }
    .dashed { stroke: currentColor; fill: none; stroke-dasharray: 4 3; marker-end: url(#arrow); }
    .arrowhead { fill: currentColor; }
    @media (prefers-color-scheme: dark) {
      svg { color: #e6edf3; }
      .muted { fill: #8b949e; }
      .accent { fill: #a371f7; }
      .accent-stroke { stroke: #a371f7; }
    }
  </style>
  <defs>
    <marker id="arrow" viewBox="0 0 10 10" refX="9" refY="5" markerWidth="7" markerHeight="7" orient="auto-start-reverse">
      <path d="M 0 0 L 10 5 L 0 10 z" class="arrowhead"/>
    </marker>
  </defs>

  <rect class="box" x="20" y="40" width="130" height="50" rx="8"/>
  <text x="85" y="70" text-anchor="middle" font-size="14">text</text>

  <path class="edge" d="M 150 65 L 238 65"/>

  <rect class="box accent-stroke" x="240" y="30" width="220" height="70" rx="8"/>
  <text x="350" y="58" text-anchor="middle" font-size="14">mlx-tts</text>
  <text x="350" y="78" text-anchor="middle" font-size="11" class="muted">MLX-Audio on Apple Silicon</text>

  <path class="edge" d="M 460 50 L 548 36"/>
  <text x="480" y="30" font-size="11" class="muted">write</text>
  <rect class="box" x="550" y="16" width="150" height="40" rx="8"/>
  <text x="625" y="41" text-anchor="middle" font-size="13">out.wav</text>

  <path class="edge" d="M 460 80 L 548 96"/>
  <text x="480" y="106" font-size="11" class="muted">--play</text>
  <rect class="box" x="550" y="78" width="150" height="40" rx="8"/>
  <text x="625" y="103" text-anchor="middle" font-size="13">speakers</text>

  <rect class="box" x="240" y="136" width="220" height="36" rx="8"/>
  <text x="350" y="159" text-anchor="middle" font-size="11">chatterbox · qwen3 · kokoro</text>
  <path class="dashed" d="M 350 134 L 350 102"/>
  <text x="362" y="124" font-size="11" class="muted">model presets, cached from HF on first run</text>
</svg>
