<svg xmlns="http://www.w3.org/2000/svg" viewBox="0 0 720 200" role="img"
     font-family="system-ui, -apple-system, 'Segoe UI', sans-serif">
  <style>
    svg { color: #1f2328; }
    .muted { fill: #656d76; }
    .accent { fill: #8250df; }
    .box { stroke: currentColor; fill: none; }
    text { fill: currentColor; }
    .edge { stroke: currentColor; fill: none; marker-end: url(#arrow); }
    @media (prefers-color-scheme: dark) {
      svg { color: #e6edf3; }
      .muted { fill: #8b949e; }
      .accent { fill: #a371f7; }
    }
  </style>
  <defs>
    <marker id="arrow" viewBox="0 0 10 10" refX="9" refY="5" markerWidth="7" markerHeight="7"
            orient="auto-start-reverse">
      <path d="M 0 0 L 10 5 L 0 10 z" fill="currentColor"/>
    </marker>
  </defs>

  <rect class="box" x="24" y="32" width="180" height="48" rx="8"/>
  <text x="114" y="52" text-anchor="middle" font-size="12" font-weight="600">peer</text>
  <text x="114" y="70" text-anchor="middle" font-size="11" class="muted">publish → serve /story</text>

  <rect class="box" x="24" y="120" width="180" height="48" rx="8"/>
  <text x="114" y="140" text-anchor="middle" font-size="12" font-weight="600">peer</text>
  <text x="114" y="158" text-anchor="middle" font-size="11" class="muted">publish → serve /story</text>

  <ellipse class="box" cx="330" cy="100" rx="72" ry="38"/>
  <text x="330" y="96" text-anchor="middle" font-size="13" font-weight="600">tailnet</text>
  <text x="330" y="114" text-anchor="middle" font-size="11" class="muted">peer directory</text>

  <line class="edge" x1="204" y1="60" x2="270" y2="82"/>
  <line class="edge" x1="204" y1="140" x2="270" y2="118"/>

  <line class="edge" x1="402" y1="100" x2="466" y2="100"/>
  <text x="434" y="84" text-anchor="middle" font-size="11" class="muted">fetch all</text>

  <rect class="box" x="468" y="76" width="96" height="48" rx="8"/>
  <text x="516" y="105" text-anchor="middle" font-size="13" font-weight="600">render</text>

  <line class="edge" x1="564" y1="100" x2="600" y2="100"/>

  <text x="606" y="90" font-size="13" class="accent">◖AG◗ ◖WG◗</text>
  <text x="606" y="112" font-size="11" class="muted">status line</text>
</svg>
