<svg xmlns="http://www.w3.org/2000/svg" viewBox="0 0 720 230" role="img"
     font-family="system-ui, -apple-system, 'Segoe UI', sans-serif">
  <style>
    svg { color: #1f2328; }
    .muted { fill: #656d76; }
    .accent { fill: #8250df; }
    .accent-stroke { stroke: #8250df; }
    .box { stroke: currentColor; fill: none; }
    text { fill: currentColor; }
    .edge { stroke: currentColor; fill: none; marker-end: url(#arrow); }
    .dashed { stroke: currentColor; fill: none; stroke-dasharray: 4 3; marker-end: url(#arrow); }
    .arrowhead { fill: currentColor; }
    @media (prefers-color-scheme: dark) {
      svg { color: #e6edf3; }
      .muted { fill: #8b949e; }
      .accent { fill: #a371f7; }
      .accent-stroke { stroke: #a371f7; }
    }
  </style>
  <defs>
    <marker id="arrow" viewBox="0 0 10 10" refX="9" refY="5" markerWidth="7" markerHeight="7" orient="auto-start-reverse">
      <path d="M 0 0 L 10 5 L 0 10 z" class="arrowhead"/>
    </marker>
  </defs>

  <rect class="box" x="20" y="92" width="140" height="52" rx="8"/>
  <text x="90" y="115" text-anchor="middle" font-size="14">MCP session</text>
  <text x="90" y="133" text-anchor="middle" font-size="11" class="muted">live resources</text>

  <path class="edge" d="M 160 118 L 228 118"/>
  <text x="194" y="106" text-anchor="middle" font-size="11" class="muted">publishes</text>

  <rect class="box" x="230" y="92" width="170" height="52" rx="8"/>
  <text x="315" y="115" text-anchor="middle" font-size="13">producer socket</text>
  <text x="315" y="133" text-anchor="middle" font-size="11" class="muted">html pane resource/&lt;id&gt;</text>

  <path class="edge" d="M 400 118 L 468 118"/>
  <text x="434" y="106" text-anchor="middle" font-size="11" class="muted">watches</text>

  <rect class="box accent-stroke" x="470" y="92" width="120" height="52" rx="8"/>
  <text x="530" y="122" text-anchor="middle" font-size="14" class="accent">ix-windows</text>

  <path class="edge" d="M 590 102 L 618 72"/>
  <text x="560" y="60" font-size="11" class="muted">opens</text>
  <path class="edge" d="M 590 118 L 616 130"/>
  <text x="562" y="152" font-size="11" class="muted">re-renders, closes</text>

  <rect class="box" x="608" y="24" width="96" height="48" rx="10"/>
  <text x="656" y="52" text-anchor="middle" font-size="11">card</text>
  <rect class="box" x="618" y="120" width="96" height="48" rx="10"/>
  <text x="666" y="148" text-anchor="middle" font-size="11">card</text>
  <text x="600" y="200" text-anchor="middle" font-size="11" class="muted">blurred, always-on-top, auto-sized</text>
</svg>
